<svg xmlns="http://www.w3.org/2000/svg" version="1.1" xmlns:xlink="http://www.w3.org/1999/xlink" xmlns:svgjs="http://svgjs.dev/svgjs" width="1200" height="1147" viewBox="0 0 2000 1347"><g transform="matrix(1,0,0,1,-1.2121212121212466,0.504858299595071)"><svg viewBox="0 0 396 147" data-background-color="#ffffff" preserveAspectRatio="xMidYMid meet" height="1100" width="1300" xmlns="http://www.w3.org/2000/svg" xmlns:xlink="http://www.w3.org/1999/xlink"><g id="tight-bounds" transform="matrix(1,0,0,1,0.2400000000000091,-0.09999999999999432)"><svg viewBox="0 0 395.52 247.2" height="247.2" width="395.52"><g><svg></svg></g><g><svg viewBox="0 0 395.52 247.2" height="247.2" width="395.52"><g transform="matrix(1,0,0,1,75.54432,93.40363686009462)"><svg viewBox="0 0 244.43135999999998 60.39272627981074" height="60.39272627981074" width="244.43135999999998"><g><svg viewBox="0 0 244.43135999999998 60.39272627981074" height="60.39272627981074" width="244.43135999999998"><g><svg viewBox="0 0 244.43135999999998 60.39272627981074" height="60.39272627981074" width="244.43135999999998"><g><svg viewBox="0 0 244.43135999999998 60.39272627981074" height="60.39272627981074" width="244.43135999999998"><g id="textblocktransform"><svg viewBox="0 0 244.43135999999998 60.39272627981074" height="60.39272627981074" width="244.43135999999998" id="textblock"><g><svg viewBox="0 0 244.43135999999998 32.572950774299834" height="32.572950774299834" width="244.43135999999998"><g transform="matrix(1,0,0,1,0,0)"><svg width="244.43135999999998" viewBox="3 -35.9 273.13 36.4" height="32.572950774299834" data-palette-color="#000000"><path d="M20.5 0L4 0 4-27.4 3-32.4 4-35.4 17-35.4Q20.8-35.4 23.58-34.52 26.35-33.65 27.9-31.7 29.45-29.75 29.45-26.5L29.45-26.5Q29.45-24.5 28.78-22.73 28.1-20.95 26.5-19.75L26.5-19.75Q29.65-18.65 31.3-16.45 32.95-14.25 32.95-10.6L32.95-10.6Q32.95-5.05 29.85-2.53 26.75 0 20.5 0L20.5 0ZM11-28.9L11-21.15 17.9-21.15Q22.1-21.15 22.1-24.85L22.1-24.85Q22.1-26.7 21.25-27.8 20.4-28.9 17.9-28.9L17.9-28.9 11-28.9ZM11-15.2L11-6.5 20-6.5Q22.65-6.5 23.88-7.7 25.1-8.9 25.1-11.05L25.1-11.05Q25.1-13.1 23.78-14.15 22.45-15.2 19.5-15.2L19.5-15.2 11-15.2ZM45.95 0L38.95 0 38.95-27.35 37.95-32.4 38.95-35.4 50.95-35.4Q54.6-35.4 57.52-34.27 60.45-33.15 62.17-30.48 63.9-27.8 63.9-23.1L63.9-23.1Q63.9-18.65 62.22-16 60.55-13.35 57.6-12.05L57.6-12.05 59.05-10.75 63.5-5.55 66.35-3 66.35 0 57.1 0 50.1-10.65 45.95-10.65 45.95-8.05 46.45-3.05 45.95 0ZM45.45-28.9L45.95-17 50.85-17Q54.15-17 55.35-18.73 56.55-20.45 56.55-23.1L56.55-23.1Q56.55-25.9 55.27-27.4 54-28.9 50.65-28.9L50.65-28.9 45.45-28.9ZM94.75 0L70.85 0 69.85-3 70.85-8 70.85-35.4 93.55-35.4 96.05-33.9 93.25-28.4 88.25-28.9 77.75-28.9 77.75-21.15 91.25-21.15 91.25-14.9 86.35-14.9 77.75-15.4 77.75-6.5 93.75-6.5 97.7-3.2 94.75 0ZM105.49 0L98.19 0 101.09-9.45 101.09-14.3 104.29-15.8 110.79-35.35 120.64-35.35 128.69-12.95 132.54-5.85 132.54 0 125.69 0 122.69-9 108.14-9 105.49 0ZM115.09-28.75L110.94-15.2 120.44-15.2 116.14-28.75 115.09-28.75ZM144.04 0L137.04 0 137.04-27.2 136.04-32.25 137.04-35.4 144.04-35.4 144.04-29.4 143.54-19.95 147.54-19.95 155.59-35.4 163.54-35.4 163.54-32.4 153.64-18.35 162.04-7.95 166.99-3 166.99 0 157.74 0 148.64-14.25 144.04-13.75 144.04-6 144.54-3 144.04 0ZM196.64 0.5L196.64 0.5Q193.84 0.5 191.16-0.28 188.49-1.05 186.34-3.05 184.19-5.05 182.94-8.6 181.69-12.15 181.69-17.7L181.69-17.7Q181.69-23.25 182.94-26.8 184.19-30.35 186.34-32.35 188.49-34.35 191.16-35.13 193.84-35.9 196.64-35.9L196.64-35.9Q199.59-35.9 202.26-35.1 204.94-34.3 207.04-32.3 209.14-30.3 210.36-26.75 211.59-23.2 211.59-17.7L211.59-17.7Q211.59-12.2 210.36-8.65 209.14-5.1 207.04-3.1 204.94-1.1 202.26-0.3 199.59 0.5 196.64 0.5ZM196.64-6.5L196.64-6.5Q199.79-6.5 201.39-7.83 202.99-9.15 203.56-11.68 204.14-14.2 204.14-17.7L204.14-17.7Q204.14-21.25 203.56-23.75 202.99-26.25 201.39-27.58 199.79-28.9 196.64-28.9L196.64-28.9Q193.54-28.9 191.91-27.55 190.29-26.2 189.74-23.7 189.19-21.2 189.19-17.7L189.19-17.7Q189.19-14.25 189.74-11.73 190.29-9.2 191.91-7.85 193.54-6.5 196.64-6.5ZM229.68 0.5L229.68 0.5Q224.53 0.5 221.61-1.2 218.68-2.9 217.46-6.23 216.23-9.55 216.23-14.35L216.23-14.35 216.23-27.35 216.28-32.4 216.23-35.4 223.33-35.4 223.33-13.85Q223.33-10.35 224.73-8.18 226.13-6 229.68-6L229.68-6Q233.23-6 234.71-8.03 236.18-10.05 236.18-13.85L236.18-13.85 236.18-35.4 243.13-35.4 243.13-14.35Q243.13-9.65 241.96-6.33 240.78-3 237.86-1.25 234.93 0.5 229.68 0.5ZM264.88 0L257.88 0 257.88-29 246.88-28.5 246.88-35.4 276.13-35.4 276.13-28.5 264.88-29 264.88-8 265.43-3 264.88 0Z" opacity="1" transform="matrix(1,0,0,1,0,0)" fill="#000000" class="undefined-text-0" data-fill-palette-color="primary" id="text-0"></path></svg></g></svg></g><g transform="matrix(1,0,0,1,0,40.262642701293444)"><svg viewBox="0 0 244.43135999999998 20.130083578517297" height="20.130083578517297" width="244.43135999999998"><g transform="matrix(1,0,0,1,0,0)"><svg width="244.43135999999998" viewBox="2 -37.8 675.74 55.65" height="20.130083578517297" data-palette-color="#61777f"><path d="M22.1-2.85Q23.85-2.85 26.65-4.7L26.65-4.7Q24.6-2.4 22.55-1.05 20.5 0.3 18.9 0.3L18.9 0.3Q17.8 0.3 17.2-0.3 16.6-0.9 16.6-1.95L16.6-1.95Q16.6-2.55 16.7-2.9L16.7-2.9 17.2-4.85Q13.55 0.5 9.35 0.5L9.35 0.5Q7.25 0.5 5.6-0.83 3.95-2.15 2.5-4.65L2.5-4.65Q2-7.15 2-9.2L2-9.2Q2-13.65 3.7-17 5.4-20.35 8.5-22.18 11.6-24 15.7-24L15.7-24Q19.4-24 22.25-22.53 25.1-21.05 26.6-18.5L26.6-18.5Q24.6-19.55 22.33-20.13 20.05-20.7 17.75-20.7L17.75-20.7Q12.3-20.7 9.25-17.35 6.2-14 6.2-8.15L6.2-8.15Q6.2-6.3 6.5-4.25L6.5-4.25Q7.3-3.5 7.95-3.15 8.6-2.8 9.55-2.8L9.55-2.8Q12.1-2.8 14.5-5.2 16.9-7.6 18.95-11.95L18.95-11.95 19.9-15.7Q20.35-17.65 22.4-17.65L22.4-17.65Q24.05-17.65 24.05-16.35L24.05-16.35Q24.05-16.2 23.95-15.7L23.95-15.7 21.1-4.2Q21-3.9 21-3.65L21-3.65Q21-2.85 22.1-2.85L22.1-2.85ZM87.77 0.3Q86.07 0.3 86.07-0.95L86.07-0.95Q86.07-1.1 86.17-1.6L86.17-1.6 90.62-19.3Q90.67-19.45 90.67-19.7L90.67-19.7Q90.67-20.15 90.39-20.4 90.12-20.65 89.67-20.65L89.67-20.65Q87.92-20.65 85.12-18.8L85.12-18.8Q87.17-21.1 89.22-22.45 91.27-23.8 92.87-23.8L92.87-23.8Q93.92-23.8 94.57-23.2 95.22-22.6 95.22-21.55L95.22-21.55Q95.22-21.15 95.07-20.6L95.07-20.6 94.22-17.2Q96.87-20.3 99.37-22.15 101.87-24 103.47-24L103.47-24Q104.32-24 105.34-23.43 106.37-22.85 107.09-21.9 107.82-20.95 107.82-19.95L107.82-19.95Q107.82-19.7 107.72-19.3L107.72-19.3 107.17-17.2Q109.82-20.3 112.32-22.15 114.82-24 116.42-24L116.42-24Q117.27-24 118.32-23.43 119.37-22.85 120.07-21.9 120.77-20.95 120.77-19.95L120.77-19.95Q120.77-19.7 120.67-19.3L120.67-19.3 116.87-4.2Q116.77-4 116.77-3.7L116.77-3.7Q116.77-2.85 117.87-2.85L117.87-2.85Q119.62-2.85 122.42-4.7L122.42-4.7Q120.37-2.4 118.32-1.05 116.27 0.3 114.67 0.3L114.67 0.3Q113.62 0.3 112.97-0.3 112.32-0.9 112.32-1.95L112.32-1.95Q112.32-2.4 112.47-2.9L112.47-2.9 116.67-19.7Q114.12-19.35 111.22-17.4 108.32-15.45 105.97-12.4L105.97-12.4 103.92-4.2Q103.82-3.9 103.82-3.65L103.82-3.65Q103.82-2.85 104.92-2.85L104.92-2.85Q106.67-2.85 109.47-4.7L109.47-4.7Q107.42-2.4 105.37-1.05 103.32 0.3 101.72 0.3L101.72 0.3Q100.67 0.3 100.02-0.3 99.37-0.9 99.37-1.95L99.37-1.95Q99.37-2.4 99.52-2.9L99.52-2.9 103.72-19.7Q101.17-19.35 98.27-17.4 95.37-15.45 93.02-12.4L93.02-12.4 90.32-1.6Q89.87 0.3 87.77 0.3L87.77 0.3ZM191.43 0.5Q188.83 0.5 186.88-0.3 184.93-1.1 183.68-2.55L183.68-2.55Q183.13-4.6 183.13-6.5L183.13-6.5Q183.13-8 183.43-9.25L183.43-9.25 189.38-33.3Q189.43-33.45 189.43-33.7L189.43-33.7Q189.43-34.15 189.16-34.4 188.88-34.65 188.43-34.65L188.43-34.65Q186.68-34.65 183.88-32.8L183.88-32.8Q185.93-35.1 187.98-36.45 190.03-37.8 191.63-37.8L191.63-37.8Q192.68-37.8 193.33-37.2 193.98-36.6 193.98-35.55L193.98-35.55Q193.98-35.15 193.83-34.6L193.83-34.6 187.48-9.2Q187.08-7.6 187.08-6.25L187.08-6.25Q187.08-4.9 187.43-3.7L187.43-3.7Q188.88-2.8 190.98-2.8L190.98-2.8Q193.93-2.8 196.16-4.48 198.38-6.15 199.58-9.22 200.78-12.3 200.78-16.4L200.78-16.4Q200.78-17.85 200.58-19.1L200.58-19.1Q199.18-20.7 196.88-20.7L196.88-20.7Q194.83-20.7 193.13-19.48 191.43-18.25 190.63-16.15L190.63-16.15Q191.13-19.75 193.06-21.88 194.98-24 197.68-24L197.68-24Q199.98-24 201.83-22.55 203.68-21.1 204.73-18.45L204.73-18.45Q204.98-17.1 204.98-15.45L204.98-15.45Q204.98-10.65 203.28-7.03 201.58-3.4 198.51-1.45 195.43 0.5 191.43 0.5L191.43 0.5ZM267.25 0.3Q266.2 0.3 265.55-0.3 264.9-0.9 264.9-1.95L264.9-1.95Q264.9-2.4 265.05-2.9L265.05-2.9 272.65-33.3Q272.75-33.6 272.75-33.85L272.75-33.85Q272.75-34.65 271.65-34.65L271.65-34.65Q269.9-34.65 267.1-32.8L267.1-32.8Q269.15-35.1 271.2-36.45 273.25-37.8 274.85-37.8L274.85-37.8Q275.9-37.8 276.55-37.2 277.2-36.6 277.2-35.55L277.2-35.55Q277.2-35.15 277.05-34.6L277.05-34.6 269.45-4.2Q269.35-3.9 269.35-3.65L269.35-3.65Q269.35-2.85 270.45-2.85L270.45-2.85Q272.2-2.85 275-4.7L275-4.7Q272.95-2.4 270.9-1.05 268.85 0.3 267.25 0.3L267.25 0.3ZM356.92-21.9L350.17 5.1Q350.12 5.5 349.92 5.95L349.92 5.95Q353.12 7.3 355.97 9.6L355.97 9.6Q354.67 8.65 349.32 7.8L349.32 7.8Q347.47 12.7 344.14 15.28 340.82 17.85 336.27 17.85L336.27 17.85Q333.52 17.85 331.59 16.95 329.67 16.05 328.27 14.05L328.27 14.05Q327.72 12.7 327.72 11.25L327.72 11.25Q327.72 9.15 329.24 7.5 330.77 5.85 333.57 4.93 336.37 4 340.02 4L340.02 4Q343.12 4 346.17 4.7L346.17 4.7 348.92-6.3Q346.12-3.4 343.59-1.7 341.07 0 339.52 0L339.52 0Q338.67 0 337.62-0.58 336.57-1.15 335.87-2.1 335.17-3.05 335.17-4.05L335.17-4.05Q335.17-4.3 335.27-4.7L335.27-4.7 338.87-19.3Q338.92-19.45 338.92-19.7L338.92-19.7Q338.92-20.15 338.64-20.4 338.37-20.65 337.92-20.65L337.92-20.65Q336.17-20.65 333.37-18.8L333.37-18.8Q335.42-21.1 337.47-22.45 339.52-23.8 341.12-23.8L341.12-23.8Q342.17-23.8 342.82-23.2 343.47-22.6 343.47-21.55L343.47-21.55Q343.47-21.15 343.32-20.6L343.32-20.6 339.27-4.3Q341.72-4.6 344.64-6.45 347.57-8.3 350.12-11.1L350.12-11.1 352.82-21.9Q353.32-23.8 355.37-23.8L355.37-23.8Q357.02-23.8 357.02-22.55L357.02-22.55Q357.02-22.4 356.92-21.9L356.92-21.9ZM335.62 14.55Q338.97 14.55 341.47 12.7 343.97 10.85 345.32 7.4L345.32 7.4Q343.42 7.3 342.42 7.3L342.42 7.3Q337.27 7.3 334.54 8.6 331.82 9.9 331.82 12.05L331.82 12.05Q331.82 12.5 331.89 12.9 331.97 13.3 332.07 13.5L332.07 13.5Q333.02 14.55 335.62 14.55L335.62 14.55ZM426.38 0.5Q422.88 0.5 420.53-1.1 418.18-2.7 417.08-5.35L417.08-5.35Q416.58-7.05 416.58-8.85L416.58-8.85Q416.58-13.2 419.33-16.98 422.08-20.75 426.73-22.95L426.73-22.95Q423.93-20.4 422.36-16.68 420.78-12.95 420.78-8.5L420.78-8.5Q420.78-6.8 421.03-4.95L421.03-4.95Q422.73-2.8 426.13-2.8L426.13-2.8Q429.38-2.8 431.76-4.78 434.13-6.75 435.33-10.38 436.53-14 436.43-18.9L436.43-18.9Q435.23-20.7 433.23-20.7L433.23-20.7Q431.63-20.7 430.63-19.5 429.63-18.3 429.63-16.35L429.63-16.35Q429.63-14.7 430.38-13.33 431.13-11.95 432.53-10.95L432.53-10.95Q429.38-11.35 427.51-13.05 425.63-14.75 425.63-17.3L425.63-17.3Q425.63-19.2 426.63-20.73 427.63-22.25 429.31-23.08 430.98-23.9 432.88-23.9L432.88-23.9Q435.38-23.9 437.33-22.45 439.28-21 440.33-18.35L440.33-18.35Q440.58-16.85 440.58-15.2L440.58-15.2Q440.58-10.55 438.68-6.98 436.78-3.4 433.53-1.45 430.28 0.5 426.38 0.5L426.38 0.5ZM523.8-18.45Q524.05-17.1 524.05-15.45L524.05-15.45Q524.05-10.6 522.1-7 520.15-3.4 516.55-1.45 512.95 0.5 508.1 0.5L508.1 0.5Q506.1 0.5 504.2 0.1L504.2 0.1 500.3 15.8Q499.85 17.7 497.75 17.7L497.75 17.7Q496.1 17.7 496.1 16.45L496.1 16.45Q496.1 16.3 496.2 15.8L496.2 15.8 500.55-1.65Q498.8-3.1 497.85-5.55L497.85-5.55Q499.4-4.6 501.1-3.95L501.1-3.95 504.95-19.3Q505.05-19.6 505.05-19.8L505.05-19.8Q505.05-20.65 503.95-20.65L503.95-20.65Q502.25-20.65 499.45-18.8L499.45-18.8Q501.5-21.1 503.55-22.45 505.6-23.8 507.2-23.8L507.2-23.8Q508.25-23.8 508.85-23.18 509.45-22.55 509.45-21.55L509.45-21.55Q509.45-20.95 509.35-20.6L509.35-20.6 508.85-18.5Q512.35-24 516.8-24L516.8-24Q519.1-24 520.93-22.55 522.75-21.1 523.8-18.45L523.8-18.45ZM507.55-2.75Q513.3-2.75 516.58-6.43 519.85-10.1 519.85-16.4L519.85-16.4Q519.85-17.85 519.65-19.1L519.65-19.1Q518.4-20.7 516.45-20.7L516.45-20.7Q514-20.7 511.55-18.28 509.1-15.85 507.1-11.55L507.1-11.55 504.95-2.95Q506.1-2.75 507.55-2.75L507.55-2.75ZM592.92-29.2Q591.97-29.2 591.34-29.78 590.72-30.35 590.72-31.25L590.72-31.25Q590.72-32.55 591.82-33.52 592.92-34.5 594.22-34.5L594.22-34.5Q595.17-34.5 595.79-33.93 596.42-33.35 596.42-32.45L596.42-32.45Q596.42-31.15 595.32-30.18 594.22-29.2 592.92-29.2L592.92-29.2ZM586.52 0.3Q585.47 0.3 584.82-0.3 584.17-0.9 584.17-1.95L584.17-1.95Q584.17-2.4 584.32-2.9L584.32-2.9 588.37-19.3Q588.42-19.45 588.42-19.7L588.42-19.7Q588.42-20.15 588.14-20.4 587.87-20.65 587.42-20.65L587.42-20.65Q585.67-20.65 582.87-18.8L582.87-18.8Q584.92-21.1 586.97-22.45 589.02-23.8 590.62-23.8L590.62-23.8Q591.67-23.8 592.32-23.2 592.97-22.6 592.97-21.55L592.97-21.55Q592.97-21.15 592.82-20.6L592.82-20.6 588.72-4.2Q588.62-3.9 588.62-3.65L588.62-3.65Q588.62-2.85 589.72-2.85L589.72-2.85Q591.47-2.85 594.27-4.7L594.27-4.7Q592.22-2.4 590.17-1.05 588.12 0.3 586.52 0.3L586.52 0.3ZM673.19-2.85Q674.94-2.85 677.74-4.7L677.74-4.7Q675.69-2.4 673.64-1.05 671.59 0.3 669.99 0.3L669.99 0.3Q668.89 0.3 668.29-0.3 667.69-0.9 667.69-1.95L667.69-1.95Q667.69-2.55 667.79-2.9L667.79-2.9 668.29-4.85Q664.64 0.5 660.44 0.5L660.44 0.5Q658.34 0.5 656.69-0.83 655.04-2.15 653.59-4.65L653.59-4.65Q653.09-7.15 653.09-9.2L653.09-9.2Q653.09-13.65 654.79-17 656.49-20.35 659.59-22.18 662.69-24 666.79-24L666.79-24Q670.49-24 673.34-22.53 676.19-21.05 677.69-18.5L677.69-18.5Q675.69-19.55 673.41-20.13 671.14-20.7 668.84-20.7L668.84-20.7Q663.39-20.7 660.34-17.35 657.29-14 657.29-8.15L657.29-8.15Q657.29-6.3 657.59-4.25L657.59-4.25Q658.39-3.5 659.04-3.15 659.69-2.8 660.64-2.8L660.64-2.8Q663.19-2.8 665.59-5.2 667.99-7.6 670.04-11.95L670.04-11.95 670.99-15.7Q671.44-17.65 673.49-17.65L673.49-17.65Q675.14-17.65 675.14-16.35L675.14-16.35Q675.14-16.2 675.04-15.7L675.04-15.7 672.19-4.2Q672.09-3.9 672.09-3.65L672.09-3.65Q672.09-2.85 673.19-2.85L673.19-2.85Z" opacity="1" transform="matrix(1,0,0,1,0,0)" fill="#000000" class="undefined-text-1" data-fill-palette-color="secondary" id="text-1"></path></svg></g></svg></g></svg></g></svg></g></svg></g></svg></g></svg></g><path d="M193.767 87.404L193.767 23.734 393.498 23.734 393.498 223.466 193.767 223.466 193.767 159.796 196.704 159.796 196.704 220.528 390.561 220.528 390.561 26.672 196.704 26.672 196.704 87.404Z" fill="#000000" stroke="transparent" data-fill-palette-color="primary"></path></svg></g><defs></defs></svg><rect width="395.52" height="247.2" fill="none" stroke="none" visibility="hidden"></rect></g></svg></g></svg>